<?xml version="1.0" encoding="UTF-8"?>
<svg id="_レイヤー_1" data-name="レイヤー_1" xmlns="http://www.w3.org/2000/svg" version="1.1" viewBox="0 0 3000 2000">
  <!-- Generator: Adobe Illustrator 29.5.0, SVG Export Plug-In . SVG Version: 2.1.0 Build 137)  -->
  <defs>
    <style>
      .st0 {
        fill: none;
        stroke: #231815;
        stroke-miterlimit: 10;
        stroke-width: 4px;
      }
    </style>
  </defs>
  <polyline class="st0" points="745.6 582.3 745.6 472.5 584.4 472.5 584.4 1201.5 1483.9 1201.5 1483.9 1372.1 1582.1 1372.1 1582.1 713.2 1395.1 713.2 1395.1 1292.6 2315.7 1292.6 2315.7 1133.8 1988.6 1133.8 1988.6 1372.1 2077.4 1372.1 2077.4 1213.2 2145.2 1213.2 2145.2 1706.2 1811 1706.2 1811 379.1 1719.9 379.1 1719.9 1463.2 1568 1463.2 1568 1549.7 1904.5 1549.7 1904.5 1367.4 1645.2 1367.4 1645.2 1781 2231.6 1781 2231.6 1031 673.2 1031 673.2 608 2077.4 608 2077.4 143.1 822.7 143.1 822.7 311.3 1988.6 311.3 1988.6 56.6 911.5 56.6 911.5 958.5 1163.8 958.5 1163.8 780.9 825 780.9 825 876.7 990.9 876.7 990.9 1867.4 2315.7 1867.4 2315.7 1624.4 1079.7 1624.4 1079.7 215.5 1897.5 215.5 1897.5 460.8 1156.8 460.8 1156.8 717.9 1339.1 717.9 1339.1 376.7 1240.9 376.7 1240.9 545 493.3 545 493.3 1136.1 752.6 1136.1"/>
</svg>