<?xml version="1.0" encoding="UTF-8"?>
<svg id="_レイヤー_1" xmlns="http://www.w3.org/2000/svg" version="1.1" viewBox="0 0 3000 2000">
  <!-- Generator: Adobe Illustrator 29.5.0, SVG Export Plug-In . SVG Version: 2.1.0 Build 137)  -->
  <defs>
    <style>
      .st0 {
        fill: none;
        stroke: #000;
        stroke-miterlimit: 10;
        stroke-width: 10px;
      }
    </style>
  </defs>
  <polyline class="st0" points="575.1 1692.9 575.1 1526.1 1110.3 1526.1 1110.3 576.7 1267.8 576.7 1267.8 362.3 731.1 362.3 731.1 1313.2 1687 1313.2 1687 1967.9 2396.8 1967.9 2396.8 783.8 1638.3 783.8 1638.3 1055 1324.7 1055 1324.7 576.7 1687 576.7 1687 1212.6 1474.9 1212.6 1474.9 947.1 1371.3 947.1 1371.3 147.7 1900.8 147.7 1900.8 731.3 2113.8 731.3 2113.8 1896.6 2481.2 1896.6 2481.2 941.3 2056.8 941.3 2056.8 201.9 1311.7 201.9 1311.7 470.2 1421 470.2 1421 1152.8 1744.8 1152.8 1744.8 624.8 1256.2 624.8 1256.2 1005.5 1797.4 1005.5 1797.4 1634.8 2172.2 1634.8 2172.2 834.8 2430.2 834.8 2430.2 1844.1 1747.8 1844.1 1747.8 1735.6 1482.2 1735.6 1482.2 1269.4 1056.4 1269.4 1056.4 1370.1 786.6 1370.1 786.6 312.7 1215.3 312.7 1215.3 1478 629.1 1478 629.1 1793.2 2277.2 1793.2 2277.2 890.2 2497.8 890.2 2497.8 511.1 678.6 511.1 678.6 1580.1 1575.7 1580.1 1575.7 257.3 834.7 257.3 834.7 416.3 949.9 416.3 949.9 1425.5 1170.2 1425.5 1170.2 1855.7 1001 1855.7 1001 455.6 888.7 455.6 888.7 86.7 2028.7 86.7 2028.7 684.6 1518.8 684.6 1518.8 1111.9 1644.2 1111.9 1644.2 1634 502.2 1634 502.2 585.4 1062.2 585.4 1062.2 413.3 1800.2 413.3 1800.2 633.6 1852.8 633.6 1852.8 465.8 1954.8 465.8 1954.8 40 2221.7 40 2221.7 1638.4 2337 1638.4 2337 1698.6"/>
</svg>