<?xml version="1.0" encoding="UTF-8"?>
<svg id="_レイヤー_1" xmlns="http://www.w3.org/2000/svg" version="1.1" viewBox="0 0 3000 2000">
  <!-- Generator: Adobe Illustrator 29.5.0, SVG Export Plug-In . SVG Version: 2.1.0 Build 137)  -->
  <defs>
    <style>
      .st0 {
        fill: none;
        stroke: #d32d20;
        stroke-miterlimit: 10;
        stroke-width: 3px;
      }
    </style>
  </defs>
  <polyline class="st0" points="1474.3 1756.2 1474.3 1965 632.8 1965 632.8 277.1 2204.3 277.1 2204.3 42.6 2323.7 42.6 2323.7 1000 768.5 1000 768.5 42.6 2076.8 42.6 2076.8 1947.4 1706.5 1947.4 1706.5 1104 1212.9 1104 1212.9 1581.3 994.8 1581.3 994.8 750.2 1607.8 750.2 1607.8 1342.6 1126.5 1342.6 1126.5 1461.9 1607.8 1461.9 1607.8 1717 1850.5 1717 1850.5 511.6 525.8 511.6 525.8 1844.6 1969.8 1844.6 1969.8 1585.4 1356.8 1585.4 1356.8 1235.7 854.9 1235.7 854.9 396.4 2450.8 396.4 2450.8 166 1241.7 166 1241.7 865.4 1122.3 865.4 1122.3 639.1 2450.8 639.1 2450.8 1231.6 1474.3 1231.6"/>
</svg>