<?xml version="1.0" encoding="UTF-8"?>
<svg id="_レイヤー_1" data-name="レイヤー_1" xmlns="http://www.w3.org/2000/svg" version="1.1" viewBox="0 0 3000 2000">
  <!-- Generator: Adobe Illustrator 29.5.0, SVG Export Plug-In . SVG Version: 2.1.0 Build 137)  -->
  <defs>
    <style>
      .st0 {
        fill: none;
        stroke: #d30f92;
        stroke-miterlimit: 10;
        stroke-width: 6px;
      }
    </style>
  </defs>
  <polyline class="st0" points="1615.2 548.2 2429.3 548.2 2429.3 1867.1 792 1867.1 792 1140 2324.2 1140 2324.2 827.6 1915.6 827.6 1915.6 220.7 1002.3 220.7 1002.3 1746.9 2318.2 1746.9 2318.2 1251.2 900.2 1251.2 900.2 728.5 2023.8 728.5 2023.8 1452.5 398.5 1452.5 398.5 136.6 1308.8 136.6 1308.8 842.6 1413.9 842.6 1413.9 28.5 1727.8 28.5 1727.8 441.6 2525.5 441.6 2525.5 1971.5 593.7 1971.5 593.7 1040.9 2228.1 1040.9 2228.1 938.8 1816.5 938.8 1816.5 340.9 1110.5 340.9 1110.5 1545.6 2228.1 1545.6 2228.1 1344.3 713.9 1344.3 713.9 638.3 2125.9 638.3 2125.9 1650.8 491.6 1650.8 491.6 28.5 1203.6 28.5 1203.6 950.8 1508.5 950.8 1508.5 136.6 1615.2 136.6"/>
</svg>